ply
format ascii 1.0
element vertex 2655
property float x
property float y
element face 45
property list uchar int vertex_index
end_header
0.606929 -5.25841
0.749451 -5.28247
1.10419 -5.30578
0.942787 -5.31055
1.2238 -5.32761
1.38763 -5.35259
1.49974 -5.39231
1.66282 -5.42445
1.70521 -5.42966
2.42854 -5.59728
2.81696 -5.69819
0 -0.629419
0 -0.689031
0 -0.921285
0 -0.768149
0 -1.14395
0 -0.557739
0 -1.17053
0 -1.19524
0 -1.25558
0 -1.38662
0 -1.61284
0 -1.83829
0 -2.00002
0.228664 -1.93878
0.085459 -1.9889
0.302674 -1.92534
0.275138 -1.98927
0.185271 -2.03647
0.159347 -2.07786
0.081716 -2.18685
0.056561 -2.2839
0.068819 -2.41992
0.142751 -2.65466
0.773483 -3.52545
0.919514 -3.59924
0.216434 -2.826
0.357668 -3.21457
0.582558 -3.42835
0.787973 -3.57208
0.81157 -3.53526
0.654987 -3.82329
0.503207 -4.13847
0.317156 -4.42333
0.508878 -5.27324
0.45984 -5.25057
0.194708 -5.18279
0.087132 -4.77266
0 -5.1192
2.65623 -5.60517
2.50028 -5.52378
0 3.40189
0 3.45546
0 3.83536
0 4.23455
0 5.54417
0 5.22257
0 2.15047
0 1.41121
0 3.00778
0 4.16032
0 4.68586
0 5.23261
0 5.53068
2.3512 -5.43541
1.41794 -2.54119
1.25933 -2.426
1.23612 -2.71117
1.40939 -2.86533
1.22499 -2.93859
1.39955 -3.10569
1.20229 -3.14527
1.37998 -3.36611
1.10631 -3.59068
1.33427 -3.71645
1.00277 -4.05768
1.23217 -4.12133
0.921851 -4.499
1.14948 -4.5219
0.821686 -4.94865
1.05567 -4.96905
0.665033 -4.94927
0.790397 -4.47157
0.871066 -4.03022
1.01133 -3.54846
1.15558 -3.10934
1.17524 -2.84886
1.17032 -2.68354
1.64917 -3.1536
1.72545 -2.90186
1.9159 -3.34091
1.97488 -3.12689
2.24666 -3.43634
2.29049 -3.3403
2.53499 -3.50239
2.14061 -3.7279
2.31725 -3.85704
1.83559 -3.58952
2.01305 -3.66831
1.58407 -3.39449
1.68245 -3.49069
1.52912 -3.61163
1.5482 -3.50073
2.12238 -3.82396
2.06016 -3.90976
2.23169 -4.0151
2.01025 -3.71714
2.07678 -3.80439
1.96121 -3.86446
1.98634 -3.83265
1.6089 -3.66178
1.66833 -3.51508
1.59724 -3.53477
1.61788 -3.61387
1.98803 -3.76716
1.65515 -3.55615
1.81218 -3.62655
1.7985 -3.64352
1.79041 -3.66886
1.7871 -3.69388
1.76308 -3.74205
1.87368 -4.20204
2.04568 -4.33921
1.65937 -4.02769
1.50273 -3.88256
1.42288 -4.1948
1.33883 -4.5861
1.21936 -5.0014
1.32124 -5.03707
1.48136 -4.6141
1.58681 -4.32605
1.7707 -4.44099
1.95785 -4.53521
1.65283 -4.68421
1.85086 -4.73928
1.46059 -5.0784
1.63156 -5.1244
1.32626 -2.15509
1.48577 -2.25112
1.88052 -2.5696
1.71036 -2.03576
1.54532 -1.78182
1.36292 -1.93139
1.08267 -2.15916
1.11518 -2.21954
2.05093 -1.83166
1.70297 -1.47887
1.40243 -1.22617
1.53591 -1.29811
1.64433 -1.32705
1.76486 -1.36183
2.28863 -1.64599
1.8831 -1.37439
2.03531 -1.27227
2.39541 -1.41406
2.50985 -0.986878
2.20863 -0.922418
2.63986 -2.43832
2.72573 -1.88675
2.76451 -1.59014
2.83174 -1.09889
1.77547 -2.80676
1.65553 -2.68236
2.03363 -2.70392
1.8396 -2.21885
2.05629 -3.00126
2.38479 -3.21257
2.35695 -4.12036
2.4598 -3.95588
2.17801 -4.43026
2.07584 -4.61886
1.97144 -4.81331
1.78291 -5.17906
2.72247 -3.52185
2.32052 -0.635532
2.57215 -0.716555
2.86631 -0.799157
2.29246 -0.14507
2.44317 -0.179462
2.7309 -0.264831
2.45884 0.001204
2.29206 0.126813
2.19215 0.196353
2.32133 0.143332
2.20423 0.285265
2.08651 0.412325
1.9795 0.526511
1.90133 0.677905
2.11928 0.374709
2.4044 0.114204
2.18231 0.325784
2.48932 -0.022626
2.73506 -0.303741
2.97215 -1.12136
2.97992 -0.812304
2.92242 -1.64167
2.8735 -1.93057
2.37513 0.046336
2.17234 0.226998
2.49116 -0.102854
2.79651 -0.410669
2.99026 -0.891358
3.00345 -1.20847
2.62674 -0.141303
3.30573 -0.660061
3.18975 -0.546391
3.49815 -0.805415
3.5983 -1.11135
3.59493 -1.30943
2.9606 -1.71862
2.89283 -2.04019
3.56163 -1.80325
3.57252 -2.19329
2.72394 -2.59392
2.10163 -2.77656
1.95277 -2.425
1.81081 -2.78696
2.07927 -2.97559
2.41962 -3.20046
2.75858 -3.52641
2.41467 -4.0115
2.32445 -4.1816
2.17363 -4.47798
2.08824 -4.63231
1.97125 -4.8604
1.80733 -5.20182
3.03291 -4.27476
3.22189 -3.68525
3.38411 -3.15746
3.00685 -3.15998
2.76108 -3.34313
2.98986 -4.35962
2.83755 -4.57595
2.74362 -4.77077
2.64726 -5.00696
2.54368 -5.32838
2.63671 -2.71934
2.67514 -2.78464
3.02201 -2.93567
3.48874 -2.8214
2.40827 -2.93159
2.48162 -3.1579
2.53621 -2.94821
2.66358 -2.83469
2.88217 -2.93735
2.92534 -3.10088
2.75687 -3.22978
2.55549 -3.08917
2.67439 -2.93762
2.78041 -2.97245
2.627 -2.98733
2.62952 -3.05221
2.75097 -3.11111
2.80791 -3.0451
2.7177 -3.03012
4.31396 -1.23372
4.62483 -1.45521
4.33061 -1.41192
4.32417 -1.48549
4.24834 -1.9029
4.63485 -1.56537
4.56678 -1.9257
4.18889 -2.33727
4.13786 -2.70301
4.02287 -3.36961
3.76429 -3.90937
4.45635 -2.39893
4.35957 -2.78467
4.12501 -3.39416
3.89848 -4.08853
4.24174 -3.46507
4.4799 -2.86612
4.57688 -2.43744
4.64855 -1.97738
3.51314 -4.43512
3.49772 -4.48206
3.3791 -4.70096
3.3248 -4.79291
3.16611 -5.04753
2.97441 -5.39482
3.67099 -4.56932
3.52966 -4.81012
3.32822 -5.10642
3.04855 -5.43287
1.8745 0.840434
1.65319 0.929418
1.78991 0.559574
2.02225 0.544661
1.61955 1.08566
1.70934 0.70881
1.49406 1.26558
1.60859 0.873861
1.67916 0.633915
1.77839 0.482136
1.87246 0.346143
2.14529 0.339204
1.91572 0.040941
2.20123 0.000293
1.76452 0.177998
1.67603 0.329475
1.55578 0.021224
1.71896 -0.160742
1.27039 -0.147104
1.52673 -0.330392
1.39474 -0.413036
0.965119 -0.260672
1.13358 -0.529377
0.660852 -0.430087
0.890434 -0.667131
1.0839 -0.908114
1.2921 -0.754556
1.49741 -0.724919
1.77403 -0.55782
1.91887 -0.33156
2.29322 -0.484214
1.87045 -0.652197
2.20463 -0.76189
1.92056 -0.911602
2.15001 -1.07767
1.17333 -0.937966
1.35925 -0.802611
1.56481 -0.797042
1.86334 -0.977168
2.10774 -1.14322
1.71582 -0.929656
1.61838 -0.925175
1.36961 -1.01534
1.83285 -1.02053
1.62604 -1.07674
1.7141 -1.0936
1.84871 -1.143
1.98353 -1.1571
2.04525 -1.15372
1.9296 0.766195
2.11674 0.495058
2.25591 0.276612
2.28126 -0.081355
2.3606 -0.599489
2.29063 -0.891433
2.14954 -1.23485
2.05049 -1.36673
1.94786 -1.38145
1.77285 -1.32838
1.56498 -1.26152
1.49729 -1.33913
1.36458 -1.18079
0.979704 -2.07131
1.00292 -2.14432
1.28868 -1.81886
1.1848 -2.36009
1.49933 -1.6199
1.15066 -2.57788
1.13857 -2.3557
1.0761 -2.44146
0.986579 -2.34427
0.946039 -2.13957
0.911458 -2.00659
1.22679 -1.75878
1.43033 -1.6059
1.18529 -1.49444
1.10621 -1.68525
1.00321 -1.85319
1.06246 -1.71022
0.987919 -1.57773
1.01149 -1.46615
1.41255 -1.26547
1.16317 -1.08363
1.21502 -1.13988
1.09044 -1.02351
1.14006 -1.08562
1.32274 -1.28229
1.1259 -1.24788
0.97596 -1.25364
0.95107 -1.49034
0.923414 -1.56325
0.83162 -1.50774
0.772368 -1.36333
0.706202 -1.44575
1.05316 -0.94726
0.899215 -1.07984
0.696132 -1.18218
0.541634 -1.35772
1.03187 -0.910848
0.972473 -0.904372
0.953346 -0.798897
0.945703 -0.793197
0.840242 -0.927747
0.620113 -1.06801
0.40603 -1.18137
0.776626 -0.858709
0.588595 -1.03178
0.552893 -0.992161
0.372288 -1.14357
0.344751 -1.11014
0.223761 -1.18566
0.250869 -1.22652
0.123685 -1.15918
0.306132 -1.32829
0.881827 -0.723916
0.723647 -0.597074
0.75786 -0.781188
0.882614 -0.775412
0.666779 -0.552895
0.611036 -0.525612
0.562304 -0.41658
0.876471 -0.148345
1.1381 -0.091895
1.48518 0.079724
1.59616 0.37936
1.56667 0.634397
1.51245 0.897163
1.41237 1.28183
1.23796 0.865933
1.31316 0.598818
1.26539 0.325109
1.17217 0.003799
1.03891 -0.054216
0.525206 -0.699021
0.542374 -0.8423
0.503536 -0.631044
0.501866 -0.586513
0.455321 -0.546323
0.37912 -0.50701
0.299927 -0.673631
0.304694 -0.630063
0.325211 -0.748447
0.224965 -0.434611
0.21535 -0.596543
0.127284 -0.76445
0.113276 -0.678553
0.137651 -0.62293
0.096537 -0.571215
0.322935 -0.90035
0.108917 -0.939211
0.016477 -0.926391
-0.000578 -1.14941
0.139737 -1.17161
-0.004388 -1.17417
-0.007583 -1.1912
0.127929 -1.19389
0.24136 -1.27816
0.13037 -1.25481
0.03309 -1.25403
0.274387 -1.43739
0.260266 -1.42941
0.166855 -1.399
0.490997 -1.45208
0.672423 -1.32111
0.733092 -1.44684
0.777042 -1.37449
0.852626 -1.50031
0.806198 -1.46826
0.957618 -1.55018
1.06125 -1.69358
0.991865 -1.64375
0.918461 -1.55902
0.600731 -1.52927
1.04367 -1.73899
0.961809 -1.79336
0.871396 -1.70736
0.643279 -1.59742
0.616929 -1.64779
0.803006 -1.78821
0.729624 -1.99923
0.923605 -2.04724
0.887021 -2.08962
0.908608 -2.26812
0.80478 -2.01798
0.752157 -2.0405
0.544718 -2.04448
0.628571 -2.05058
0.697121 -2.14715
0.550252 -1.90705
0.487346 -1.72454
0.395899 -1.82525
0.25085 -1.63798
0.244374 -1.65823
0.123817 -1.64274
0.075363 -1.84282
0.245409 -1.81066
0.304946 -1.8052
0.296986 -1.69917
0.439278 -1.77072
0.314085 -1.88332
0.179735 -1.98447
0.32483 -1.84137
0.222738 -1.89441
0.172525 -1.97874
0.114834 -2.16285
0.093712 -2.25552
0.112533 -2.12555
0.12404 -2.38326
0.150668 -2.03918
0.190912 -2.60781
0.240723 -2.60203
0.306947 -2.58209
0.405686 -2.47487
0.226778 -2.09017
0.3484 -2.0023
0.42988 -2.10529
0.510107 -2.12067
0.581623 -2.18791
0.478191 -2.1571
0.940866 -2.32846
1.01587 -2.42197
1.13026 -2.6722
1.13301 -3.05626
0.829619 -3.39583
0.886282 -2.90006
0.973873 -2.6651
0.872574 -2.48038
0.924078 -2.53985
0.850053 -2.39968
0.677365 -3.39553
0.490297 -3.08107
0.442003 -3.1814
0.371433 -2.70644
0.289637 -2.71713
0.833722 -2.31991
0.723318 -2.27754
0.833002 -2.32345
0.692294 -2.37174
0.838047 -2.45322
0.641657 -2.58822
0.83545 -2.39253
0.863047 -2.46492
0.611144 -2.55097
0.586612 -2.67634
0.69244 -3.06073
0.766932 -3.93384
0.735525 -3.89385
0.728226 -4.16362
0.6726 -4.21102
0.642157 -4.51041
0.58714 -4.5504
0.570267 -4.18679
0.442477 -4.48928
0.572488 -4.94837
0.520362 -4.93184
0.271754 -4.84092
3.74177 -4.17182
4.04361 -3.57504
4.22395 -3.06147
4.40301 -2.6061
4.50954 -2.16501
4.64434 -1.74196
4.07458 -2.73713
4.24748 -2.277
3.94058 -3.14108
3.74956 -3.68957
3.50322 -4.20336
3.51173 -4.55241
3.29843 -4.83566
3.06951 -5.12662
2.85651 -5.3667
2.68242 -5.30658
2.86541 -5.07454
3.11501 -4.82719
3.33706 -4.54269
1.26926 1.2552
0.808878 -0.108006
0.785511 -0.113481
1.28815 1.33112
1.42851 1.24986
1.36065 1.21984
1.42687 1.33361
1.45086 1.45705
1.38406 1.43823
1.47007 1.49324
1.59426 1.55834
1.48425 1.63208
1.62093 1.64777
1.65043 1.61724
1.54526 1.74215
1.38958 1.76066
1.3836 1.80876
1.65576 1.8259
1.59715 1.91464
1.39207 1.99493
1.7627 1.65599
1.76299 1.80572
1.9495 1.84984
1.76077 1.85065
1.74362 1.99795
1.49747 2.13374
1.40021 2.17374
1.7561 2.21664
1.42038 2.45347
0.681201 -0.189988
0.475894 -0.29839
0.290747 -0.351774
0.276279 -0.316745
1.33881 2.72968
1.29554 2.97586
1.24917 3.13003
1.22871 3.22082
1.06235 3.34983
0.814242 3.41664
0.605427 3.43673
0.377767 3.41668
0.191664 3.35213
0.327215 3.61761
0.49034 3.72708
0.833423 3.57912
1.18657 3.53715
1.27451 3.42949
1.51539 3.46293
1.72966 2.98573
1.58733 3.27325
1.80259 2.67303
1.8835 2.4212
1.77047 1.54758
1.76354 1.69084
1.78981 1.74517
1.6524 1.6352
1.61621 1.63182
1.70217 1.69121
2.02491 1.6849
2.08124 1.73977
2.10169 1.84193
2.312 1.66706
2.13922 1.49363
1.56812 1.45231
1.84743 1.19231
2.03996 1.26356
2.00178 1.17893
2.12027 1.18143
1.95567 1.11205
2.0352 1.05821
2.50667 1.35421
2.5568 1.42584
2.62558 1.66785
2.57219 1.66594
2.314 1.93712
1.34718 1.43508
2.37056 2.18864
1.79536 2.31226
2.2988 2.37833
2.43192 2.42086
2.27483 2.70837
2.1274 2.76378
2.02782 3.05747
2.21127 3.15136
2.07758 3.59379
2.2058 3.05323
2.23458 2.85369
2.49222 2.76375
1.68272 3.87279
1.59127 3.68753
1.46979 4.22697
1.41931 4.08523
0.969239 4.03284
0.44624 4.02519
0.29338 4.20284
0.507507 4.74909
0.273753 4.90292
0 4.87944
0.855572 4.44395
1.00122 4.43322
2.63476 2.91711
2.37344 3.23013
2.24501 3.76286
2.175 3.97464
1.77247 3.91719
1.69615 3.98836
2.02053 4.12619
1.72097 4.40171
1.41798 4.55433
1.3504 4.34724
1.20015 4.61336
1.30446 4.99702
0.873342 4.70963
0.69617 4.78404
0.424844 4.97854
0 5.08592
0.696076 5.19322
0.635427 5.51565
1.51174 4.93809
1.90679 4.42285
2.35455 3.70565
2.64494 3.81463
2.42155 3.77924
2.20304 4.21662
2.2517 4.26915
1.78853 4.80961
1.60139 4.89572
2.54302 3.22818
2.58833 3.23654
2.62956 3.16481
2.33697 3.75401
2.69544 2.59419
2.70344 2.832
2.43001 2.81146
2.20714 3.07876
2.90404 2.24721
2.66632 2.01022
2.56923 2.36897
2.56093 2.35942
2.26532 2.57683
2.33665 2.02939
2.28442 2.02263
2.15045 1.47684
2.16779 1.51462
2.64345 1.92542
1.61273 0.873944
2.07938 1.11058
1.71649 0.726429
1.88475 0.517371
1.96082 0.442513
1.94291 0.314387
1.42999 0.889587
1.50552 0.653872
0.931704 0.787899
0.917302 1.01955
0 0.904195
0 1.03054
0.951775 0.729199
0 0.845559
1.55521 0.591727
0.894334 1.45868
1.63915 1.53068
0.916245 0.591191
0 0.707846
1.51684 0.444141
2.89416 -0.293492
2.20873 -0.084916
1.64363 0.058334
0.948287 0.148704
0 0.168425
1.02946 2.24387
1.68425 2.19638
1.69538 2.76301
1.87691 2.72828
0.875196 3.02126
1.78215 3.54208
2.10716 3.38469
0.844364 4.03324
1.79631 4.11807
0.742722 4.66367
0.846059 5.2651
0.689895 5.51242
2.17394 1.46651
4.31184 -1.20063
4.28121 -1.23602
4.41342 -1.36602
4.07592 -1.65577
3.18982 -1.09823
2.38693 -0.750937
1.7195 -0.583459
0.992348 -0.495836
0 -0.488963
0.917138 -0.807683
0 -0.804943
1.66854 -0.878633
2.29817 -1.04051
3.11579 -1.32048
4.38354 -1.80351
3.74264 -2.35777
3.67798 -2.90606
3.63881 -3.24171
3.51253 -3.72645
3.28763 -4.20136
3.10444 -4.54345
2.88229 -4.75316
2.63698 -4.99993
2.49222 -5.23389
0.681818 -1.56571
0 -1.51473
1.35017 -1.67514
1.84782 -1.74594
2.75622 -1.99017
0.518024 -2.10815
0 -2.05635
1.08679 -2.19117
1.53827 -2.28906
1.96407 -2.352
2.64002 -2.51801
0.44787 -2.51034
0 -2.39456
0.983234 -2.5831
1.46665 -2.7101
2.07379 -2.82287
2.70589 -3.01017
0.342392 -3.01133
0 -2.93399
0.865371 -3.1137
1.35565 -3.23425
1.78257 -3.38436
2.21345 -3.53735
2.64201 -3.59015
0.208197 -3.46217
0 -3.38957
0.730909 -3.56852
1.24398 -3.66319
1.65856 -3.76853
2.09688 -3.93888
2.55587 -3.97232
0.090155 -3.81937
0 -3.75251
0.670606 -3.91565
1.15938 -3.98773
1.55232 -4.10324
2.01066 -4.25018
2.46865 -4.33771
0.097358 -4.2071
0 -4.2023
0.635255 -4.23469
1.12077 -4.32377
1.50273 -4.48221
1.88257 -4.59567
2.41234 -4.64447
0.110803 -4.44991
0 -4.44233
0.124695 -4.68502
0 -4.70272
0.115238 -4.99269
0 -4.96804
0.620858 -4.48334
0.611104 -4.72398
0.595195 -5.03812
1.0865 -4.58847
1.06436 -4.82352
1.03139 -5.10085
1.46917 -4.72807
1.41586 -4.95443
1.3765 -5.23486
1.79033 -4.90605
1.68622 -5.16383
1.59625 -5.43677
2.26091 -4.95199
2.1214 -5.16678
2.01533 -5.38751
0 -1.9889
0 -2.03647
0 -2.07786
0 -2.18685
0 -2.2839
0 -2.41992
0 -2.65466
0 -2.826
0 -3.21457
0 -3.42835
0 -3.57208
0 -3.82329
0 -4.13847
0 -4.42333
0 -4.77266
0 -6.03088
0.173271 -6.03088
0.409214 -6.03088
0.452853 -6.03088
0.540109 -6.03088
0.66694 -6.03088
0.83899 -6.03088
0.982628 -6.03088
1.08906 -6.03088
1.23486 -6.03088
1.33463 -6.03088
1.47975 -6.03088
1.51747 -6.03088
2.16117 -6.03088
2.50683 -6.03088
2.36379 -6.03088
2.22501 -6.03088
2.09234 -6.03088
1.79345 -6.03088
1.42051 -6.03088
1.22495 -6.03088
0.91784 -6.03088
0.529666 -6.03088
0.102551 -6.03088
0 -6.03088
-0.606929 -5.25841
-0.749451 -5.28247
-1.10419 -5.30578
-0.942787 -5.31055
-1.2238 -5.32761
-1.38763 -5.35259
-1.49974 -5.39231
-1.66282 -5.42445
-1.70521 -5.42966
-2.42854 -5.59728
-2.81696 -5.69819
-0.228664 -1.93878
-0.085459 -1.9889
-0.302674 -1.92534
-0.275138 -1.98927
-0.185271 -2.03647
-0.159347 -2.07786
-0.081716 -2.18685
-0.056561 -2.2839
-0.068819 -2.41992
-0.142751 -2.65466
-0.773483 -3.52545
-0.919514 -3.59924
-0.216434 -2.826
-0.357668 -3.21457
-0.582558 -3.42835
-0.787973 -3.57208
-0.81157 -3.53526
-0.654987 -3.82329
-0.503207 -4.13847
-0.317156 -4.42333
-0.508878 -5.27324
-0.45984 -5.25057
-0.194708 -5.18279
-0.087132 -4.77266
-2.65623 -5.60517
-2.50028 -5.52378
-2.3512 -5.43541
-1.41794 -2.54119
-1.25933 -2.426
-1.23612 -2.71117
-1.40939 -2.86533
-1.22499 -2.93859
-1.39955 -3.10569
-1.20229 -3.14527
-1.37998 -3.36611
-1.10631 -3.59068
-1.33427 -3.71645
-1.00277 -4.05768
-1.23217 -4.12133
-0.921851 -4.499
-1.14948 -4.5219
-0.821686 -4.94865
-1.05567 -4.96905
-0.665033 -4.94927
-0.790397 -4.47157
-0.871066 -4.03022
-1.01133 -3.54846
-1.15558 -3.10934
-1.17524 -2.84886
-1.17032 -2.68354
-1.64917 -3.1536
-1.72545 -2.90186
-1.9159 -3.34091
-1.97488 -3.12689
-2.24666 -3.43634
-2.29049 -3.3403
-2.53499 -3.50239
-2.14061 -3.7279
-2.31725 -3.85704
-1.83559 -3.58952
-2.01305 -3.66831
-1.58407 -3.39449
-1.68245 -3.49069
-1.52912 -3.61163
-1.5482 -3.50073
-2.12238 -3.82396
-2.06016 -3.90976
-2.23169 -4.0151
-2.01025 -3.71714
-2.07678 -3.80439
-1.96121 -3.86446
-1.98634 -3.83265
-1.6089 -3.66178
-1.66833 -3.51508
-1.59724 -3.53477
-1.61788 -3.61387
-1.98803 -3.76716
-1.65515 -3.55615
-1.81218 -3.62655
-1.7985 -3.64352
-1.79041 -3.66886
-1.7871 -3.69388
-1.76308 -3.74205
-1.87368 -4.20204
-2.04568 -4.33921
-1.65937 -4.02769
-1.50273 -3.88256
-1.42288 -4.1948
-1.33883 -4.5861
-1.21936 -5.0014
-1.32124 -5.03707
-1.48136 -4.6141
-1.58681 -4.32605
-1.7707 -4.44099
-1.95785 -4.53521
-1.65283 -4.68421
-1.85086 -4.73928
-1.46059 -5.0784
-1.63156 -5.1244
-1.32626 -2.15509
-1.48577 -2.25112
-1.88052 -2.5696
-1.71036 -2.03576
-1.54532 -1.78182
-1.36292 -1.93139
-1.08267 -2.15916
-1.11518 -2.21954
-2.05093 -1.83166
-1.70297 -1.47887
-1.40243 -1.22617
-1.53591 -1.29811
-1.64433 -1.32705
-1.76486 -1.36183
-2.28863 -1.64599
-1.8831 -1.37439
-2.03531 -1.27227
-2.39541 -1.41406
-2.50985 -0.986878
-2.20863 -0.922418
-2.63986 -2.43832
-2.72573 -1.88675
-2.76451 -1.59014
-2.83174 -1.09889
-1.77547 -2.80676
-1.65553 -2.68236
-2.03363 -2.70392
-1.8396 -2.21885
-2.05629 -3.00126
-2.38479 -3.21257
-2.35695 -4.12036
-2.4598 -3.95588
-2.17801 -4.43026
-2.07584 -4.61886
-1.97144 -4.81331
-1.78291 -5.17906
-2.72247 -3.52185
-2.32052 -0.635532
-2.57215 -0.716555
-2.86631 -0.799157
-2.29246 -0.14507
-2.44317 -0.179462
-2.7309 -0.264831
-2.45884 0.001204
-2.29206 0.126813
-2.19215 0.196353
-2.32133 0.143332
-2.20423 0.285265
-2.08651 0.412325
-1.9795 0.526511
-1.90133 0.677905
-2.11928 0.374709
-2.4044 0.114204
-2.18231 0.325784
-2.48932 -0.022626
-2.73506 -0.303741
-2.97215 -1.12136
-2.97992 -0.812304
-2.92242 -1.64167
-2.8735 -1.93057
-2.37513 0.046336
-2.17234 0.226998
-2.49116 -0.102854
-2.79651 -0.410669
-2.99026 -0.891358
-3.00345 -1.20847
-2.62674 -0.141303
-3.30573 -0.660061
-3.18975 -0.546391
-3.49815 -0.805415
-3.5983 -1.11135
-3.59493 -1.30943
-2.9606 -1.71862
-2.89283 -2.04019
-3.56163 -1.80325
-3.57252 -2.19329
-2.72394 -2.59392
-2.10163 -2.77656
-1.95277 -2.425
-1.81081 -2.78696
-2.07927 -2.97559
-2.41962 -3.20046
-2.75858 -3.52641
-2.41467 -4.0115
-2.32445 -4.1816
-2.17363 -4.47798
-2.08824 -4.63231
-1.97125 -4.8604
-1.80733 -5.20182
-3.03291 -4.27476
-3.22189 -3.68525
-3.38411 -3.15746
-3.00685 -3.15998
-2.76108 -3.34313
-2.98986 -4.35962
-2.83755 -4.57595
-2.74362 -4.77077
-2.64726 -5.00696
-2.54368 -5.32838
-2.63671 -2.71934
-2.67514 -2.78464
-3.02201 -2.93567
-3.48874 -2.8214
-2.40827 -2.93159
-2.48162 -3.1579
-2.53621 -2.94821
-2.66358 -2.83469
-2.88217 -2.93735
-2.92534 -3.10088
-2.75687 -3.22978
-2.55549 -3.08917
-2.67439 -2.93762
-2.78041 -2.97245
-2.627 -2.98733
-2.62952 -3.05221
-2.75097 -3.11111
-2.80791 -3.0451
-2.7177 -3.03012
-4.31396 -1.23372
-4.62483 -1.45521
-4.33061 -1.41192
-4.32417 -1.48549
-4.24834 -1.9029
-4.63485 -1.56537
-4.56678 -1.9257
-4.18889 -2.33727
-4.13786 -2.70301
-4.02287 -3.36961
-3.76429 -3.90937
-4.45635 -2.39893
-4.35957 -2.78467
-4.12501 -3.39416
-3.89848 -4.08853
-4.24174 -3.46507
-4.4799 -2.86612
-4.57688 -2.43744
-4.64855 -1.97738
-3.51314 -4.43512
-3.49772 -4.48206
-3.3791 -4.70096
-3.3248 -4.79291
-3.16611 -5.04753
-2.97441 -5.39482
-3.67099 -4.56932
-3.52966 -4.81012
-3.32822 -5.10642
-3.04855 -5.43287
-1.8745 0.840434
-1.65319 0.929418
-1.78991 0.559574
-2.02225 0.544661
-1.61955 1.08566
-1.70934 0.70881
-1.49406 1.26558
-1.60859 0.873861
-1.67916 0.633915
-1.77839 0.482136
-1.87246 0.346143
-2.14529 0.339204
-1.91572 0.040941
-2.20123 0.000293
-1.76452 0.177998
-1.67603 0.329475
-1.55578 0.021224
-1.71896 -0.160742
-1.27039 -0.147104
-1.52673 -0.330392
-1.39474 -0.413036
-0.965119 -0.260672
-1.13358 -0.529377
-0.660852 -0.430087
-0.890434 -0.667131
-1.0839 -0.908114
-1.2921 -0.754556
-1.49741 -0.724919
-1.77403 -0.55782
-1.91887 -0.33156
-2.29322 -0.484214
-1.87045 -0.652197
-2.20463 -0.76189
-1.92056 -0.911602
-2.15001 -1.07767
-1.17333 -0.937966
-1.35925 -0.802611
-1.56481 -0.797042
-1.86334 -0.977168
-2.10774 -1.14322
-1.71582 -0.929656
-1.61838 -0.925175
-1.36961 -1.01534
-1.83285 -1.02053
-1.62604 -1.07674
-1.7141 -1.0936
-1.84871 -1.143
-1.98353 -1.1571
-2.04525 -1.15372
-1.9296 0.766195
-2.11674 0.495058
-2.25591 0.276612
-2.28126 -0.081355
-2.3606 -0.599489
-2.29063 -0.891433
-2.14954 -1.23485
-2.05049 -1.36673
-1.94786 -1.38145
-1.77285 -1.32838
-1.56498 -1.26152
-1.49729 -1.33913
-1.36458 -1.18079
-0.979704 -2.07131
-1.00292 -2.14432
-1.28868 -1.81886
-1.1848 -2.36009
-1.49933 -1.6199
-1.15066 -2.57788
-1.13857 -2.3557
-1.0761 -2.44146
-0.986579 -2.34427
-0.946039 -2.13957
-0.911458 -2.00659
-1.22679 -1.75878
-1.43033 -1.6059
-1.18529 -1.49444
-1.10621 -1.68525
-1.00321 -1.85319
-1.06246 -1.71022
-0.987919 -1.57773
-1.01149 -1.46615
-1.41255 -1.26547
-1.16317 -1.08363
-1.21502 -1.13988
-1.09044 -1.02351
-1.14006 -1.08562
-1.32274 -1.28229
-1.1259 -1.24788
-0.97596 -1.25364
-0.95107 -1.49034
-0.923414 -1.56325
-0.83162 -1.50774
-0.772368 -1.36333
-0.706202 -1.44575
-1.05316 -0.94726
-0.899215 -1.07984
-0.696132 -1.18218
-0.541634 -1.35772
-1.03187 -0.910848
-0.972473 -0.904372
-0.953346 -0.798897
-0.945703 -0.793197
-0.840242 -0.927747
-0.620113 -1.06801
-0.40603 -1.18137
-0.776626 -0.858709
-0.588595 -1.03178
-0.552893 -0.992161
-0.372288 -1.14357
-0.344751 -1.11014
-0.223761 -1.18566
-0.250869 -1.22652
-0.123685 -1.15918
-0.306132 -1.32829
-0.881827 -0.723916
-0.723647 -0.597074
-0.75786 -0.781188
-0.882614 -0.775412
-0.666779 -0.552895
-0.611036 -0.525612
-0.562304 -0.41658
-0.876471 -0.148345
-1.1381 -0.091895
-1.48518 0.079724
-1.59616 0.37936
-1.56667 0.634397
-1.51245 0.897163
-1.41237 1.28183
-1.23796 0.865933
-1.31316 0.598818
-1.26539 0.325109
-1.17217 0.003799
-1.03891 -0.054216
-0.525206 -0.699021
-0.542374 -0.8423
-0.503536 -0.631044
-0.501866 -0.586513
-0.455321 -0.546323
-0.37912 -0.50701
-0.299927 -0.673631
-0.304694 -0.630063
-0.325211 -0.748447
-0.224965 -0.434611
-0.21535 -0.596543
-0.127284 -0.76445
-0.113276 -0.678553
-0.137651 -0.62293
-0.096537 -0.571215
-0.322935 -0.90035
-0.108917 -0.939211
-0.016477 -0.926391
0.000578 -1.14941
-0.139737 -1.17161
0.004388 -1.17417
0.007583 -1.1912
-0.127929 -1.19389
-0.24136 -1.27816
-0.13037 -1.25481
-0.03309 -1.25403
-0.274387 -1.43739
-0.260266 -1.42941
-0.166855 -1.399
-0.490997 -1.45208
-0.672423 -1.32111
-0.733092 -1.44684
-0.777042 -1.37449
-0.852626 -1.50031
-0.806198 -1.46826
-0.957618 -1.55018
-1.06125 -1.69358
-0.991865 -1.64375
-0.918461 -1.55902
-0.600731 -1.52927
-1.04367 -1.73899
-0.961809 -1.79336
-0.871396 -1.70736
-0.643279 -1.59742
-0.616929 -1.64779
-0.803006 -1.78821
-0.729624 -1.99923
-0.923605 -2.04724
-0.887021 -2.08962
-0.908608 -2.26812
-0.80478 -2.01798
-0.752157 -2.0405
-0.544718 -2.04448
-0.628571 -2.05058
-0.697121 -2.14715
-0.550252 -1.90705
-0.487346 -1.72454
-0.395899 -1.82525
-0.25085 -1.63798
-0.244374 -1.65823
-0.123817 -1.64274
-0.075363 -1.84282
-0.245409 -1.81066
-0.304946 -1.8052
-0.296986 -1.69917
-0.439278 -1.77072
-0.314085 -1.88332
-0.179735 -1.98447
-0.32483 -1.84137
-0.222738 -1.89441
-0.172525 -1.97874
-0.114834 -2.16285
-0.093712 -2.25552
-0.112533 -2.12555
-0.12404 -2.38326
-0.150668 -2.03918
-0.190912 -2.60781
-0.240723 -2.60203
-0.306947 -2.58209
-0.405686 -2.47487
-0.226778 -2.09017
-0.3484 -2.0023
-0.42988 -2.10529
-0.510107 -2.12067
-0.581623 -2.18791
-0.478191 -2.1571
-0.940866 -2.32846
-1.01587 -2.42197
-1.13026 -2.6722
-1.13301 -3.05626
-0.829619 -3.39583
-0.886282 -2.90006
-0.973873 -2.6651
-0.872574 -2.48038
-0.924078 -2.53985
-0.850053 -2.39968
-0.677365 -3.39553
-0.490297 -3.08107
-0.442003 -3.1814
-0.371433 -2.70644
-0.289637 -2.71713
-0.833722 -2.31991
-0.723318 -2.27754
-0.833002 -2.32345
-0.692294 -2.37174
-0.838047 -2.45322
-0.641657 -2.58822
-0.83545 -2.39253
-0.863047 -2.46492
-0.611144 -2.55097
-0.586612 -2.67634
-0.69244 -3.06073
-0.766932 -3.93384
-0.735525 -3.89385
-0.728226 -4.16362
-0.6726 -4.21102
-0.642157 -4.51041
-0.58714 -4.5504
-0.570267 -4.18679
-0.442477 -4.48928
-0.572488 -4.94837
-0.520362 -4.93184
-0.271754 -4.84092
-3.74177 -4.17182
-4.04361 -3.57504
-4.22395 -3.06147
-4.40301 -2.6061
-4.50954 -2.16501
-4.64434 -1.74196
-4.07458 -2.73713
-4.24748 -2.277
-3.94058 -3.14108
-3.74956 -3.68957
-3.50322 -4.20336
-3.51173 -4.55241
-3.29843 -4.83566
-3.06951 -5.12662
-2.85651 -5.3667
-2.68242 -5.30658
-2.86541 -5.07454
-3.11501 -4.82719
-3.33706 -4.54269
-1.26926 1.2552
-0.808878 -0.108006
-0.785511 -0.113481
-1.28815 1.33112
-1.42851 1.24986
-1.36065 1.21984
-1.42687 1.33361
-1.45086 1.45705
-1.38406 1.43823
-1.47007 1.49324
-1.59426 1.55834
-1.48425 1.63208
-1.62093 1.64777
-1.65043 1.61724
-1.54526 1.74215
-1.38958 1.76066
-1.3836 1.80876
-1.65576 1.8259
-1.59715 1.91464
-1.39207 1.99493
-1.7627 1.65599
-1.76299 1.80572
-1.9495 1.84984
-1.76077 1.85065
-1.74362 1.99795
-1.49747 2.13374
-1.40021 2.17374
-1.7561 2.21664
-1.42038 2.45347
-0.681201 -0.189988
-0.475894 -0.29839
-0.290747 -0.351774
-0.276279 -0.316745
-1.33881 2.72968
-1.29554 2.97586
-1.24917 3.13003
-1.22871 3.22082
-1.06235 3.34983
-0.814242 3.41664
-0.605427 3.43673
-0.377767 3.41668
-0.191664 3.35213
-0.327215 3.61761
-0.49034 3.72708
-0.833423 3.57912
-1.18657 3.53715
-1.27451 3.42949
-1.51539 3.46293
-1.72966 2.98573
-1.58733 3.27325
-1.80259 2.67303
-1.8835 2.4212
-1.77047 1.54758
-1.76354 1.69084
-1.78981 1.74517
-1.6524 1.6352
-1.61621 1.63182
-1.70217 1.69121
-2.02491 1.6849
-2.08124 1.73977
-2.10169 1.84193
-2.312 1.66706
-2.13922 1.49363
-1.56812 1.45231
-1.84743 1.19231
-2.03996 1.26356
-2.00178 1.17893
-2.12027 1.18143
-1.95567 1.11205
-2.0352 1.05821
-2.50667 1.35421
-2.5568 1.42584
-2.62558 1.66785
-2.57219 1.66594
-2.314 1.93712
-1.34718 1.43508
-2.37056 2.18864
-1.79536 2.31226
-2.2988 2.37833
-2.43192 2.42086
-2.27483 2.70837
-2.1274 2.76378
-2.02782 3.05747
-2.21127 3.15136
-2.07758 3.59379
-2.2058 3.05323
-2.23458 2.85369
-2.49222 2.76375
-1.68272 3.87279
-1.59127 3.68753
-1.46979 4.22697
-1.41931 4.08523
-0.969239 4.03284
-0.44624 4.02519
-0.29338 4.20284
-0.507507 4.74909
-0.273753 4.90292
-0.855572 4.44395
-1.00122 4.43322
-2.63476 2.91711
-2.37344 3.23013
-2.24501 3.76286
-2.175 3.97464
-1.77247 3.91719
-1.69615 3.98836
-2.02053 4.12619
-1.72097 4.40171
-1.41798 4.55433
-1.3504 4.34724
-1.20015 4.61336
-1.30446 4.99702
-0.873342 4.70963
-0.69617 4.78404
-0.424844 4.97854
-0.696076 5.19322
-0.635427 5.51565
-1.51174 4.93809
-1.90679 4.42285
-2.35455 3.70565
-2.64494 3.81463
-2.42155 3.77924
-2.20304 4.21662
-2.2517 4.26915
-1.78853 4.80961
-1.60139 4.89572
-2.54302 3.22818
-2.58833 3.23654
-2.62956 3.16481
-2.33697 3.75401
-2.69544 2.59419
-2.70344 2.832
-2.43001 2.81146
-2.20714 3.07876
-2.90404 2.24721
-2.66632 2.01022
-2.56923 2.36897
-2.56093 2.35942
-2.26532 2.57683
-2.33665 2.02939
-2.28442 2.02263
-2.15045 1.47684
-2.16779 1.51462
-2.64345 1.92542
-1.61273 0.873944
-2.07938 1.11058
-1.71649 0.726429
-1.88475 0.517371
-1.96082 0.442513
-1.94291 0.314387
-1.42999 0.889587
-1.50552 0.653872
-0.931704 0.787899
-0.917302 1.01955
-0.951775 0.729199
-1.55521 0.591727
-0.894334 1.45868
-1.63915 1.53068
-0.916245 0.591191
-1.51684 0.444141
-2.89416 -0.293492
-2.20873 -0.084916
-1.64363 0.058334
-0.948287 0.148704
-1.02946 2.24387
-1.68425 2.19638
-1.69538 2.76301
-1.87691 2.72828
-0.875196 3.02126
-1.78215 3.54208
-2.10716 3.38469
-0.844364 4.03324
-1.79631 4.11807
-0.742722 4.66367
-0.846059 5.2651
-0.689895 5.51242
-2.17394 1.46651
-4.31184 -1.20063
-4.28121 -1.23602
-4.41342 -1.36602
-4.07592 -1.65577
-3.18982 -1.09823
-2.38693 -0.750937
-1.7195 -0.583459
-0.992348 -0.495836
-0.917138 -0.807683
-1.66854 -0.878633
-2.29817 -1.04051
-3.11579 -1.32048
-4.38354 -1.80351
-3.74264 -2.35777
-3.67798 -2.90606
-3.63881 -3.24171
-3.51253 -3.72645
-3.28763 -4.20136
-3.10444 -4.54345
-2.88229 -4.75316
-2.63698 -4.99993
-2.49222 -5.23389
-0.681818 -1.56571
-1.35017 -1.67514
-1.84782 -1.74594
-2.75622 -1.99017
-0.518024 -2.10815
-1.08679 -2.19117
-1.53827 -2.28906
-1.96407 -2.352
-2.64002 -2.51801
-0.44787 -2.51034
-0.983234 -2.5831
-1.46665 -2.7101
-2.07379 -2.82287
-2.70589 -3.01017
-0.342392 -3.01133
-0.865371 -3.1137
-1.35565 -3.23425
-1.78257 -3.38436
-2.21345 -3.53735
-2.64201 -3.59015
-0.208197 -3.46217
-0.730909 -3.56852
-1.24398 -3.66319
-1.65856 -3.76853
-2.09688 -3.93888
-2.55587 -3.97232
-0.090155 -3.81937
-0.670606 -3.91565
-1.15938 -3.98773
-1.55232 -4.10324
-2.01066 -4.25018
-2.46865 -4.33771
-0.097358 -4.2071
-0.635255 -4.23469
-1.12077 -4.32377
-1.50273 -4.48221
-1.88257 -4.59567
-2.41234 -4.64447
-0.110803 -4.44991
-0.124695 -4.68502
-0.115238 -4.99269
-0.620858 -4.48334
-0.611104 -4.72398
-0.595195 -5.03812
-1.0865 -4.58847
-1.06436 -4.82352
-1.03139 -5.10085
-1.46917 -4.72807
-1.41586 -4.95443
-1.3765 -5.23486
-1.79033 -4.90605
-1.68622 -5.16383
-1.59625 -5.43677
-2.26091 -4.95199
-2.1214 -5.16678
-2.01533 -5.38751
-0.173271 -6.03088
-0.409214 -6.03088
-0.452853 -6.03088
-0.540109 -6.03088
-0.66694 -6.03088
-0.83899 -6.03088
-0.982628 -6.03088
-1.08906 -6.03088
-1.23486 -6.03088
-1.33463 -6.03088
-1.47975 -6.03088
-1.51747 -6.03088
-2.16117 -6.03088
-2.50683 -6.03088
-2.36379 -6.03088
-2.22501 -6.03088
-2.09234 -6.03088
-1.79345 -6.03088
-1.42051 -6.03088
-1.22495 -6.03088
-0.91784 -6.03088
-0.529666 -6.03088
-0.102551 -6.03088
-1.16107 1.93441
-0.205103 1.93606
-0.231208 1.9082
-0.290521 1.94855
-0.315073 1.89817
-0.302358 1.89607
-0.407271 1.99189
-0.599913 2.0669
-0.818046 2.1024
-1.0702 2.13112
-1.12645 2.07156
-0.439859 1.93127
-0.626491 2.01093
-0.817392 2.05174
-1.0461 2.08268
-1.0949 2.04101
-0.446881 1.90596
-0.641413 1.97545
-0.807406 2.02769
-1.01558 2.067
-0.333298 1.80098
-0.377943 1.84138
-0.514841 1.86491
-0.580052 1.86372
-0.675458 1.86244
-0.784839 1.84839
-0.853135 1.81502
-0.723749 1.74229
-0.576331 1.71873
-0.426383 1.72486
-0.399649 1.81259
-0.502009 1.82758
-0.463364 1.74361
-0.714552 1.7651
-0.755854 1.82343
-0.654012 1.81986
-0.634942 1.79791
-0.574174 1.7953
-0.534733 1.80621
-0.571565 1.82473
1.16107 1.93441
0.205103 1.93606
0.231208 1.9082
0.290521 1.94855
0.315073 1.89817
0.302358 1.89607
0.407271 1.99189
0.599913 2.0669
0.818046 2.1024
1.0702 2.13112
1.12645 2.07156
0.439859 1.93127
0.626491 2.01093
0.817392 2.05174
1.0461 2.08268
1.0949 2.04101
0.446881 1.90596
0.641413 1.97545
0.807406 2.02769
1.01558 2.067
0.333298 1.80098
0.377943 1.84138
0.514841 1.86491
0.580052 1.86372
0.675458 1.86244
0.784839 1.84839
0.853135 1.81502
0.723749 1.74229
0.576331 1.71873
0.426383 1.72486
0.399649 1.81259
0.502009 1.82758
0.463364 1.74361
0.714552 1.7651
0.755854 1.82343
0.654012 1.81986
0.634942 1.79791
0.574174 1.7953
0.534733 1.80621
0.571565 1.82473
-0.093362 -0.478222
-0.096537 -0.571215
0 -0.557739
0 -0.471817
-0.224965 -0.434611
-1.19966 0.612319
-1.23796 0.865933
-1.31316 0.598818
-1.26539 0.325109
-1.1421 0.357713
-1.17217 0.003799
-0.99264 0.08779
-1.03891 -0.054216
-0.958007 0.004663
-1.26926 1.2552
-1.30361 1.16541
-1.25673 0.831771
-1.24666 0.626933
-1.1813 0.382558
-0.997234 0.135594
-0.968603 0.04749
-1.36037 1.12934
-1.31317 0.827262
-1.32188 0.686917
-1.237 0.437886
-1.12969 0.202209
-1.07181 0.081753
-0.864304 -0.095589
-0.808878 -0.108006
-0.785511 -0.113481
-1.30133 1.30903
-1.28815 1.33112
-1.40378 1.25315
-1.41714 1.19959
-1.37215 1.07701
-1.42851 1.24986
-1.35164 0.73068
-1.24432 0.569741
-1.37109 0.959788
-1.36065 1.21984
-1.14461 0.348289
-1.0651 0.150062
-0.886429 -0.041894
-0.951259 0.096646
-1.07768 0.29395
-1.26092 0.785572
-1.20598 0.682387
-1.17568 0.520922
-1.08251 0.41625
-1.08601 0.590441
-0.941793 0.371891
-0.964148 0.504018
-0.949137 0.239988
-1.28681 1.01372
-1.22543 0.911496
-1.13018 0.804388
-0.997671 0.714594
-1.35283 1.41507
-1.38406 1.43823
-1.29641 1.28984
-1.25788 1.18168
-1.1587 1.08166
-1.01955 0.988808
-1.34119 1.65633
-1.38958 1.76066
-1.48425 1.63208
-1.34749 1.61612
-1.3836 1.80876
-1.30342 1.44982
-1.25624 1.37225
-1.19687 1.30399
-1.0659 1.20865
-0.844796 0.640292
-1.14621 1.4615
-1.06797 1.42393
-1.21904 1.50742
-1.29148 1.58495
-1.34795 1.67516
-1.29202 2.29351
-1.42038 2.45347
-1.40021 2.17374
-1.30041 2.06651
-1.39207 1.99493
-1.35371 1.8873
-1.16107 1.93441
-1.15743 2.09869
-1.2504 1.79407
-1.1553 1.72621
-1.03268 1.65597
-1.08228 1.85761
-0.991261 1.74717
-0.66883 -0.133086
-0.605833 -0.237692
-0.696418 -0.024416
-0.679076 -0.223769
-0.681201 -0.189988
-0.517345 -0.29906
-0.47636 -0.318326
-0.472171 -0.319164
-0.475894 -0.29839
-0.6181 -0.168267
-0.532043 -0.188259
-0.416522 -0.315333
-0.385661 -0.338703
-0.297379 -0.368494
-0.314927 -0.362307
-0.310459 -0.370836
-0.325354 -0.3705
-0.290747 -0.351774
-0.282196 -0.332769
-0.259483 -0.362621
-0.096673 -0.315136
-0.07776 -0.351505
0 -0.307163
0 -0.337078
-0.11417 -0.383655
0 -0.375667
0 -0.391969
-0.122677 -0.386415
0 -0.391004
-0.135317 -0.392239
-0.132397 -0.409716
0 -0.4073
-0.145465 -0.408123
0 -0.409347
-0.152053 -0.370044
0 -0.371925
-0.143397 -0.343689
0 -0.357342
-0.276279 -0.316745
-0.412154 -0.205409
-0.291315 -0.209898
-0.082305 -0.23669
0 -0.220695
-0.133829 -0.186136
-0.065653 -0.117723
-0.070935 -0.066474
0 -0.045579
0 -0.084188
-0.257796 -0.128864
-0.238682 -0.059001
-0.404022 -0.057416
-0.476644 -0.050701
-0.552883 -0.047095
-0.72068 0.102483
-0.607757 0.091845
-0.439127 0.053185
-0.35772 0.05727
-0.226956 0.072274
-0.060318 0.07373
0 0.080414
-0.324676 0.127456
-0.386141 0.220323
-0.320505 0.141799
-0.313339 0.209882
-0.471391 0.225149
-0.575916 0.238576
-0.762829 0.246984
0 0.170935
-0.069361 0.164459
-0.228307 0.154997
-0.232922 0.168293
-0.20816 0.220833
-0.071777 0.180417
-0.086023 0.243535
0 0.186778
0 0.248996
0 0.284272
-0.07365 0.277933
-0.193681 0.263527
-0.291142 0.266477
-0.385333 0.280193
-0.469844 0.312862
0 -0.158265
-0.561159 0.337266
-0.58434 0.353769
-0.636702 0.376537
-0.790274 0.394847
-0.449321 0.382192
-0.343124 0.350456
-0.266822 0.342211
-0.158775 0.331242
-0.0486 0.326522
0 0.329461
0 0.360331
-0.043045 0.36448
-0.158212 0.381306
-0.245268 0.380848
-0.323899 0.382911
-0.460064 0.430666
-0.344289 0.406637
-0.255007 0.404932
-0.163628 0.40845
-0.055541 0.40733
0 0.397424
-0.341215 0.414218
-0.23862 0.413229
-0.145206 0.414588
-0.044394 0.411907
0 0.40589
-0.041735 0.456187
0 0.449223
-0.14716 0.464641
-0.239029 0.456758
0 0.468383
-0.03677 0.483633
-0.143092 0.491804
-0.245183 0.479875
-0.336416 0.460032
-0.355035 0.52823
-0.258464 0.547844
-0.142186 0.547709
-0.050051 0.532402
0 0.543088
-0.439771 0.529104
-0.512286 0.50057
-0.568693 0.448882
-0.671436 0.503081
-0.682462 0.624455
-0.507632 0.602478
-0.444401 0.608461
-0.340154 0.602725
-0.24088 0.683499
-0.325949 0.684599
-0.108692 0.664232
-0.027575 0.656342
0 0.645054
-0.438461 0.691844
-0.511163 0.702227
-0.689729 0.709366
-0.891639 0.946287
-0.716621 0.885393
-0.498711 0.814368
-0.389916 0.804071
-0.315485 0.79891
-0.202297 0.784284
-0.101304 0.756621
0 0.733657
-0.900515 1.16806
-0.744744 1.11177
-0.55736 1.06015
-0.384455 1.03698
-0.380896 0.915372
-0.350573 0.859098
-0.353165 0.939698
-0.367133 0.88501
-0.301454 0.849319
-0.199972 0.853192
-0.082569 0.79351
0 0.780302
-0.358499 1.13587
-0.313961 1.1035
-0.251755 1.12825
-0.250109 1.20826
-0.323421 1.22979
-0.212153 1.25309
-0.214941 1.11343
-0.357993 0.947133
-0.308167 0.891267
-0.247574 0.867584
-0.291854 0.903935
-0.308845 0.977413
-0.574497 1.28293
-0.724999 1.31976
-0.908878 1.38587
-0.326531 1.42844
-0.577303 1.44231
-0.726249 1.45289
-0.900317 1.60521
-0.257015 0.962623
-0.250845 0.89254
-0.182226 0.953741
-0.208692 0.93333
-0.195555 0.856733
-0.17111 1.09616
-0.139966 1.25039
-0.051121 1.07132
-0.071682 0.913681
-0.100151 0.855922
-0.102183 0.818842
0 0.792142
0 0.840963
-0.059178 1.24613
0 0.886066
-0.121931 0.787974
0 0.766279
-0.174241 0.798512
-0.213937 0.842269
-0.229106 0.881785
-0.093307 0.808868
0 0.786166
0 1.05357
0 1.22967
-0.042104 1.464
0 1.45802
-0.115906 1.45399
-0.185694 1.45113
-0.106878 1.64371
-0.164299 1.64827
-0.037208 1.62841
0 1.63259
-0.24043 1.44397
-0.202382 1.66246
-0.332835 1.57299
-0.25313 1.69794
-0.037269 1.73782
0 1.73663
-0.105125 1.74445
-0.158929 1.75398
-0.190782 1.75425
0 1.79882
-0.041248 1.80665
-0.097157 1.82292
-0.172705 1.81171
-0.21669 1.80113
0 1.8778
-0.072641 1.87762
-0.141212 1.89106
-0.175663 1.86447
-0.089632 1.95109
0 1.95043
-0.205103 1.93606
-0.115729 2.03689
0 2.03621
-0.252663 1.98971
-0.085173 2.16728
-0.252006 2.12434
0 2.15948
-0.091552 2.28404
0 2.29324
-0.122377 2.44925
0 2.46433
-0.256576 2.24265
-0.277904 2.35228
-0.280946 2.48356
-1.33881 2.72968
-1.16074 2.63157
-1.06575 2.24078
-1.29554 2.97586
-1.15418 2.99513
-1.24917 3.13003
-1.01787 2.80159
-1.01522 2.53592
-0.790139 2.24204
-0.780496 2.40331
-0.791082 2.61956
-0.800991 2.7573
-1.02772 2.97115
-1.10956 3.17923
-1.22871 3.22082
-1.04343 3.13633
-0.78191 3.12277
-0.789318 2.95937
-0.446992 2.3155
-0.568644 2.18558
-0.522196 2.51712
-0.586157 2.74311
-0.602808 2.91916
-0.60362 3.1509
-0.799644 3.34926
-0.585669 3.34991
-1.06235 3.34983
-0.422407 2.21643
-0.391108 2.07932
-0.346132 2.72844
-0.18079 2.72313
0 2.71017
-0.389971 2.93471
-0.405038 3.15928
-0.384682 3.35613
-0.814242 3.41664
-0.605427 3.43673
-0.377767 3.41668
-0.211126 2.91988
0 2.91091
-0.197682 3.16269
0 3.14418
-0.200928 3.32556
0 3.32677
-0.191664 3.35213
0 3.40189
-0.208998 1.85424
-0.229374 1.75978
-0.246421 1.80144
-0.241221 1.86071
-0.231208 1.9082
-0.290521 1.94855
-0.302358 1.89607
-0.407271 1.99189
-0.599913 2.0669
-0.818046 2.1024
-1.0702 2.13112
-1.12645 2.07156
-0.307572 1.87232
-0.475958 1.93065
-0.446881 1.90596
-0.780522 2.03302
-0.807406 2.02769
-1.01558 2.067
-0.641413 1.97545
-0.620493 2.01165
-0.629815 1.95698
-0.760623 1.98149
-0.944004 1.96518
-1.0949 2.04101
-1.04067 1.9453
-0.463554 1.89702
-0.609915 1.90172
-0.726872 1.91296
-0.9074 1.88305
-1.00443 1.87095
-1.00585 1.8185
-0.285824 1.74761
-0.328278 1.86398
-0.333298 1.80098
-0.83178 1.66618
-0.898667 1.79549
-0.703251 1.60455
-0.564198 1.58256
-0.383179 1.64027
-0.915714 1.83715
-0.89338 1.85076
-0.86685 1.87544
-0.708905 1.89169
-0.592987 1.89901
-0.463218 1.89306
-0.377943 1.84138
-0.514841 1.86491
-0.580052 1.86372
-0.675458 1.86244
-0.784839 1.84839
-0.853135 1.81502
-0.723749 1.74229
-0.576331 1.71873
-0.426383 1.72486
-1.51668 1.23253
-1.55522 1.27752
-1.68012 1.4207
-1.69772 1.39136
-1.76508 1.56761
-1.77047 1.54758
-1.6834 1.62278
-1.76354 1.69084
-1.62339 1.50022
-1.54001 1.37985
-1.42687 1.33361
-1.59558 1.5336
-1.66735 1.63944
-1.52143 1.46109
-1.47007 1.49324
-1.65351 1.65796
-1.70217 1.69121
-1.60008 1.57741
-1.53974 1.55742
-1.53022 1.5766
-1.62093 1.64777
-1.60482 1.69202
-1.58426 1.54614
-1.56812 1.45231
-1.34718 1.43508
-1.42274 1.57302
-1.40844 1.43859
-1.39182 1.30176
-1.44699 1.30625
-1.418 1.56494
-0.111949 0.905611
-0.13401 0.910055
-0.095349 0.907946
-0.099877 0.914423
-0.144862 0.933115
-0.164937 0.939185
-0.150751 0.928509
-0.157148 0.945174
0.096537 -0.571215
0.093362 -0.478222
0.224965 -0.434611
1.31316 0.598818
1.23796 0.865933
1.19966 0.612319
1.1421 0.357713
1.26539 0.325109
0.99264 0.08779
1.17217 0.003799
0.958007 0.004663
1.03891 -0.054216
1.30361 1.16541
1.26926 1.2552
1.25673 0.831771
1.24666 0.626933
1.1813 0.382558
0.997234 0.135594
0.968603 0.04749
1.31317 0.827262
1.36037 1.12934
1.32188 0.686917
1.237 0.437886
1.12969 0.202209
1.07181 0.081753
0.808878 -0.108006
0.864304 -0.095589
0.785511 -0.113481
1.28815 1.33112
1.30133 1.30903
1.40378 1.25315
1.37215 1.07701
1.41714 1.19959
1.42851 1.24986
1.35164 0.73068
1.24432 0.569741
1.37109 0.959788
1.36065 1.21984
1.14461 0.348289
1.0651 0.150062
0.886429 -0.041894
0.951259 0.096646
1.07768 0.29395
1.26092 0.785572
1.17568 0.520922
1.20598 0.682387
1.08251 0.41625
1.08601 0.590441
0.964148 0.504018
0.941793 0.371891
0.949137 0.239988
1.28681 1.01372
1.22543 0.911496
1.13018 0.804388
0.997671 0.714594
1.38406 1.43823
1.35283 1.41507
1.29641 1.28984
1.25788 1.18168
1.1587 1.08166
1.01955 0.988808
1.48425 1.63208
1.38958 1.76066
1.34119 1.65633
1.34749 1.61612
1.3836 1.80876
1.30342 1.44982
1.25624 1.37225
1.19687 1.30399
1.0659 1.20865
0.844796 0.640292
1.06797 1.42393
1.14621 1.4615
1.21904 1.50742
1.29148 1.58495
1.34795 1.67516
1.30041 2.06651
1.40021 2.17374
1.42038 2.45347
1.29202 2.29351
1.35371 1.8873
1.39207 1.99493
1.16107 1.93441
1.15743 2.09869
1.2504 1.79407
1.1553 1.72621
1.03268 1.65597
1.08228 1.85761
0.991261 1.74717
0.605833 -0.237692
0.66883 -0.133086
0.696418 -0.024416
0.679076 -0.223769
0.681201 -0.189988
0.47636 -0.318326
0.517345 -0.29906
0.472171 -0.319164
0.475894 -0.29839
0.6181 -0.168267
0.532043 -0.188259
0.385661 -0.338703
0.416522 -0.315333
0.314927 -0.362307
0.297379 -0.368494
0.310459 -0.370836
0.325354 -0.3705
0.290747 -0.351774
0.259483 -0.362621
0.282196 -0.332769
0.07776 -0.351505
0.096673 -0.315136
0.11417 -0.383655
0.122677 -0.386415
0.135317 -0.392239
0.132397 -0.409716
0.145465 -0.408123
0.152053 -0.370044
0.143397 -0.343689
0.276279 -0.316745
0.412154 -0.205409
0.291315 -0.209898
0.133829 -0.186136
0.082305 -0.23669
0.257796 -0.128864
0.065653 -0.117723
0.070935 -0.066474
0.238682 -0.059001
0.404022 -0.057416
0.476644 -0.050701
0.552883 -0.047095
0.72068 0.102483
0.607757 0.091845
0.439127 0.053185
0.35772 0.05727
0.226956 0.072274
0.060318 0.07373
0.324676 0.127456
0.313339 0.209882
0.320505 0.141799
0.386141 0.220323
0.471391 0.225149
0.575916 0.238576
0.762829 0.246984
0.069361 0.164459
0.228307 0.154997
0.20816 0.220833
0.232922 0.168293
0.086023 0.243535
0.071777 0.180417
0.07365 0.277933
0.193681 0.263527
0.291142 0.266477
0.385333 0.280193
0.469844 0.312862
0.561159 0.337266
0.636702 0.376537
0.58434 0.353769
0.790274 0.394847
0.343124 0.350456
0.449321 0.382192
0.266822 0.342211
0.158775 0.331242
0.0486 0.326522
0.043045 0.36448
0.158212 0.381306
0.245268 0.380848
0.323899 0.382911
0.460064 0.430666
0.344289 0.406637
0.255007 0.404932
0.163628 0.40845
0.055541 0.40733
0.341215 0.414218
0.23862 0.413229
0.145206 0.414588
0.044394 0.411907
0.041735 0.456187
0.14716 0.464641
0.239029 0.456758
0.03677 0.483633
0.143092 0.491804
0.245183 0.479875
0.336416 0.460032
0.355035 0.52823
0.258464 0.547844
0.142186 0.547709
0.050051 0.532402
0.439771 0.529104
0.512286 0.50057
0.568693 0.448882
0.671436 0.503081
0.682462 0.624455
0.507632 0.602478
0.444401 0.608461
0.340154 0.602725
0.325949 0.684599
0.24088 0.683499
0.108692 0.664232
0.027575 0.656342
0.438461 0.691844
0.511163 0.702227
0.689729 0.709366
0.891639 0.946287
0.716621 0.885393
0.498711 0.814368
0.389916 0.804071
0.315485 0.79891
0.202297 0.784284
0.101304 0.756621
0.900515 1.16806
0.744744 1.11177
0.55736 1.06015
0.380896 0.915372
0.384455 1.03698
0.350573 0.859098
0.367133 0.88501
0.353165 0.939698
0.301454 0.849319
0.199972 0.853192
0.082569 0.79351
0.313961 1.1035
0.358499 1.13587
0.250109 1.20826
0.251755 1.12825
0.323421 1.22979
0.212153 1.25309
0.214941 1.11343
0.357993 0.947133
0.308167 0.891267
0.247574 0.867584
0.308845 0.977413
0.291854 0.903935
0.574497 1.28293
0.724999 1.31976
0.908878 1.38587
0.577303 1.44231
0.326531 1.42844
0.726249 1.45289
0.900317 1.60521
0.257015 0.962623
0.250845 0.89254
0.195555 0.856733
0.208692 0.93333
0.182226 0.953741
0.17111 1.09616
0.139966 1.25039
0.071682 0.913681
0.051121 1.07132
0.100151 0.855922
0.102183 0.818842
0.059178 1.24613
0.121931 0.787974
0.174241 0.798512
0.213937 0.842269
0.229106 0.881785
0.093307 0.808868
0.042104 1.464
0.115906 1.45399
0.185694 1.45113
0.164299 1.64827
0.106878 1.64371
0.037208 1.62841
0.24043 1.44397
0.202382 1.66246
0.332835 1.57299
0.25313 1.69794
0.037269 1.73782
0.105125 1.74445
0.158929 1.75398
0.190782 1.75425
0.041248 1.80665
0.097157 1.82292
0.172705 1.81171
0.21669 1.80113
0.072641 1.87762
0.141212 1.89106
0.175663 1.86447
0.089632 1.95109
0.205103 1.93606
0.115729 2.03689
0.252006 2.12434
0.085173 2.16728
0.252663 1.98971
0.091552 2.28404
0.122377 2.44925
0.256576 2.24265
0.277904 2.35228
0.280946 2.48356
1.33881 2.72968
1.16074 2.63157
1.06575 2.24078
1.29554 2.97586
1.24917 3.13003
1.15418 2.99513
1.01522 2.53592
1.01787 2.80159
0.780496 2.40331
0.790139 2.24204
0.791082 2.61956
0.800991 2.7573
1.02772 2.97115
1.22871 3.22082
1.10956 3.17923
1.04343 3.13633
0.789318 2.95937
0.78191 3.12277
0.568644 2.18558
0.446992 2.3155
0.522196 2.51712
0.586157 2.74311
0.602808 2.91916
0.60362 3.1509
0.585669 3.34991
0.799644 3.34926
1.06235 3.34983
0.422407 2.21643
0.391108 2.07932
0.346132 2.72844
0.18079 2.72313
0.389971 2.93471
0.405038 3.15928
0.384682 3.35613
0.814242 3.41664
0.605427 3.43673
0.377767 3.41668
0.211126 2.91988
0.197682 3.16269
0.200928 3.32556
0.191664 3.35213
0.208998 1.85424
0.229374 1.75978
0.246421 1.80144
0.241221 1.86071
0.231208 1.9082
0.290521 1.94855
0.302358 1.89607
0.407271 1.99189
0.599913 2.0669
0.818046 2.1024
1.0702 2.13112
1.12645 2.07156
0.307572 1.87232
0.475958 1.93065
0.446881 1.90596
1.01558 2.067
0.807406 2.02769
0.780522 2.03302
0.620493 2.01165
0.641413 1.97545
0.629815 1.95698
0.760623 1.98149
0.944004 1.96518
1.04067 1.9453
1.0949 2.04101
0.609915 1.90172
0.463554 1.89702
0.726872 1.91296
0.9074 1.88305
1.00443 1.87095
1.00585 1.8185
0.285824 1.74761
0.328278 1.86398
0.333298 1.80098
0.898667 1.79549
0.83178 1.66618
0.703251 1.60455
0.564198 1.58256
0.383179 1.64027
0.915714 1.83715
0.89338 1.85076
0.86685 1.87544
0.708905 1.89169
0.592987 1.89901
0.463218 1.89306
0.377943 1.84138
0.514841 1.86491
0.580052 1.86372
0.675458 1.86244
0.784839 1.84839
0.853135 1.81502
0.723749 1.74229
0.576331 1.71873
0.426383 1.72486
1.55522 1.27752
1.51668 1.23253
1.69772 1.39136
1.68012 1.4207
1.77047 1.54758
1.76508 1.56761
1.76354 1.69084
1.6834 1.62278
1.62339 1.50022
1.54001 1.37985
1.42687 1.33361
1.66735 1.63944
1.59558 1.5336
1.52143 1.46109
1.47007 1.49324
1.70217 1.69121
1.65351 1.65796
1.60008 1.57741
1.53974 1.55742
1.53022 1.5766
1.62093 1.64777
1.60482 1.69202
1.56812 1.45231
1.58426 1.54614
1.42274 1.57302
1.34718 1.43508
1.39182 1.30176
1.40844 1.43859
1.44699 1.30625
1.418 1.56494
0.157148 0.945174
0.150751 0.928509
0.144862 0.933115
0.164937 0.939185
0.095349 0.907946
0.099877 0.914423
0.111949 0.905611
0.13401 0.910055
3 1895 1896 1897
3 1898 1897 1896
3 1898 1896 1899
3 1909 1901 1897
3 1909 1897 1910
3 1910 1897 1898
3 1910 1898 1911
3 1910 1911 1919
3 1910 1919 1920
3 1910 1920 1921
3 1910 1921 1909
3 1923 1922 1924
3 1923 1924 1925
3 1925 1924 1926
3 1925 1926 1927
3 1896 1895 1934
3 1896 1934 1899
3 1894 1934 1895
3 1894 1895 1893
3 1920 1919 1926
3 1920 1926 1924
3 1921 1920 1924
3 1921 1924 1922
3 1899 2358 2359
3 1899 2359 1898
3 2369 2359 2360
3 2369 2360 2368
3 1911 1898 2359
3 1911 2359 2369
3 2377 1919 1911
3 2377 1911 2369
3 2368 2378 2377
3 2368 2377 2369
3 2381 2382 2380
3 2381 2380 2379
3 1927 1926 2382
3 1927 2382 2381
3 1899 1934 2355
3 1899 2355 2358
3 2356 2355 1934
3 2356 1934 1894
3 2382 1926 1919
3 2382 1919 2377
3 2380 2382 2377
3 2380 2377 2378
