ply
format ascii 1.0
element vertex 85
property float x
property float y
element face 84
property list uchar int vertex_index
end_header
0 0
1 0
2 0
3 0
4 0
5 0
6 0
0 1
1 1
2 1
3 1
4 1
5 1
6 1
0 2
1 2
2 2
3 2
4 2
5 2
6 2
0 3
1 3
2 3
3 3
4 3
5 3
6 3
0 4
1 4
2 4
3 4
4 4
5 4
6 4
0 5
1 5
2 5
3 5
4 5
5 5
6 5
0 6
1 6
2 6
3 6
4 6
5 6
6 6
0.5 0.5
1.5 0.5
2.5 0.5
3.5 0.5
4.5 0.5
5.5 0.5
0.5 1.5
1.5 1.5
2.5 1.5
3.5 1.5
4.5 1.5
5.5 1.5
0.5 2.5
1.5 2.5
2.5 2.5
3.5 2.5
4.5 2.5
5.5 2.5
0.5 3.5
1.5 3.5
2.5 3.5
3.5 3.5
4.5 3.5
5.5 3.5
0.5 4.5
1.5 4.5
2.5 4.5
3.5 4.5
4.5 4.5
5.5 4.5
0.5 5.5
1.5 5.5
2.5 5.5
3.5 5.5
4.5 5.5
5.5 5.5
4 0 7 8 1
3 1 8 50
3 8 9 50
3 9 2 50
3 2 1 50
4 2 9 10 3
4 3 10 11 4
4 4 11 12 5
3 5 12 54
3 12 13 54
3 13 6 54
3 6 5 54
3 7 14 55
3 14 15 55
3 15 8 55
3 8 7 55
4 8 15 16 9
3 9 16 57
3 16 17 57
3 17 10 57
3 10 9 57
4 10 17 18 11
3 11 18 59
3 18 19 59
3 19 12 59
3 12 11 59
4 12 19 20 13
3 14 21 61
3 21 22 61
3 22 15 61
3 15 14 61
4 15 22 23 16
4 16 23 24 17
4 17 24 25 18
4 18 25 26 19
4 19 26 27 20
3 21 28 67
3 28 29 67
3 29 22 67
3 22 21 67
4 22 29 30 23
3 23 30 69
3 30 31 69
3 31 24 69
3 24 23 69
3 24 31 70
3 31 32 70
3 32 25 70
3 25 24 70
3 25 32 71
3 32 33 71
3 33 26 71
3 26 25 71
4 26 33 34 27
3 28 35 73
3 35 36 73
3 36 29 73
3 29 28 73
3 29 36 74
3 36 37 74
3 37 30 74
3 30 29 74
3 30 37 75
3 37 38 75
3 38 31 75
3 31 30 75
3 31 38 76
3 38 39 76
3 39 32 76
3 32 31 76
4 32 39 40 33
3 33 40 78
3 40 41 78
3 41 34 78
3 34 33 78
4 35 42 43 36
4 36 43 44 37
4 37 44 45 38
3 38 45 82
3 45 46 82
3 46 39 82
3 39 38 82
4 39 46 47 40
4 40 47 48 41
