ply
format ascii 1.0
element vertex 61
property float x
property float y
element face 100
property list uchar int vertex_index
end_header
0 0
1 0
2 0
3 0
4 0
5 0
0 1
1 1
2 1
3 1
4 1
5 1
0 2
1 2
2 2
3 2
4 2
5 2
0 3
1 3
2 3
3 3
4 3
5 3
0 4
1 4
2 4
3 4
4 4
5 4
0 5
1 5
2 5
3 5
4 5
5 5
0.5 0.5
1.5 0.5
2.5 0.5
3.5 0.5
4.5 0.5
0.5 1.5
1.5 1.5
2.5 1.5
3.5 1.5
4.5 1.5
0.5 2.5
1.5 2.5
2.5 2.5
3.5 2.5
4.5 2.5
0.5 3.5
1.5 3.5
2.5 3.5
3.5 3.5
4.5 3.5
0.5 4.5
1.5 4.5
2.5 4.5
3.5 4.5
4.5 4.5
3 0 6 36
3 6 7 36
3 7 1 36
3 1 0 36
3 1 7 37
3 7 8 37
3 8 2 37
3 2 1 37
3 2 8 38
3 8 9 38
3 9 3 38
3 3 2 38
3 3 9 39
3 9 10 39
3 10 4 39
3 4 3 39
3 4 10 40
3 10 11 40
3 11 5 40
3 5 4 40
3 6 12 41
3 12 13 41
3 13 7 41
3 7 6 41
3 7 13 42
3 13 14 42
3 14 8 42
3 8 7 42
3 8 14 43
3 14 15 43
3 15 9 43
3 9 8 43
3 9 15 44
3 15 16 44
3 16 10 44
3 10 9 44
3 10 16 45
3 16 17 45
3 17 11 45
3 11 10 45
3 12 18 46
3 18 19 46
3 19 13 46
3 13 12 46
3 13 19 47
3 19 20 47
3 20 14 47
3 14 13 47
3 14 20 48
3 20 21 48
3 21 15 48
3 15 14 48
3 15 21 49
3 21 22 49
3 22 16 49
3 16 15 49
3 16 22 50
3 22 23 50
3 23 17 50
3 17 16 50
3 18 24 51
3 24 25 51
3 25 19 51
3 19 18 51
3 19 25 52
3 25 26 52
3 26 20 52
3 20 19 52
3 20 26 53
3 26 27 53
3 27 21 53
3 21 20 53
3 21 27 54
3 27 28 54
3 28 22 54
3 22 21 54
3 22 28 55
3 28 29 55
3 29 23 55
3 23 22 55
3 24 30 56
3 30 31 56
3 31 25 56
3 25 24 56
3 25 31 57
3 31 32 57
3 32 26 57
3 26 25 57
3 26 32 58
3 32 33 58
3 33 27 58
3 27 26 58
3 27 33 59
3 33 34 59
3 34 28 59
3 28 27 59
3 28 34 60
3 34 35 60
3 35 29 60
3 29 28 60
